<svg xmlns="http://www.w3.org/2000/svg" xmlns:xlink="http://www.w3.org/1999/xlink" zoomAndPan="magnify" preserveAspectRatio="xMidYMid meet" version="1.0" viewBox="54 54 12 12"><defs><g/></defs><path fill="#cb6ce6" d="M 55.34375 61.15625 C 55.34375 61.015625 55.273438 60.941406 55.128906 60.941406 L 54.476562 60.941406 C 54.445312 60.941406 54.429688 60.925781 54.429688 60.894531 L 54.429688 59.105469 C 54.429688 59.074219 54.445312 59.058594 54.476562 59.058594 L 56.542969 59.058594 C 56.757812 59.050781 56.90625 58.949219 56.988281 58.753906 C 57.070312 58.554688 57.039062 58.378906 56.890625 58.222656 L 55.429688 56.761719 C 55.402344 56.742188 55.402344 56.71875 55.429688 56.695312 L 56.695312 55.425781 C 56.722656 55.410156 56.730469 55.40625 56.761719 55.429688 L 58.222656 56.890625 C 58.378906 57.035156 58.554688 57.066406 58.75 56.984375 C 58.949219 56.902344 59.050781 56.753906 59.058594 56.542969 L 59.058594 54.476562 C 59.058594 54.445312 59.074219 54.429688 59.105469 54.429688 L 59.402344 54.429688 C 59.542969 54.425781 59.613281 54.355469 59.613281 54.214844 C 59.613281 54.074219 59.542969 54.003906 59.402344 54 L 59.105469 54 C 58.972656 54 58.859375 54.046875 58.769531 54.140625 C 58.675781 54.230469 58.628906 54.34375 58.628906 54.476562 L 58.628906 56.542969 C 58.617188 56.609375 58.582031 56.625 58.527344 56.585938 L 57.066406 55.125 C 56.972656 55.035156 56.859375 54.988281 56.730469 54.988281 C 56.597656 54.988281 56.484375 55.035156 56.390625 55.125 L 55.128906 56.390625 C 55.03125 56.480469 54.984375 56.59375 54.984375 56.726562 C 54.984375 56.859375 55.03125 56.972656 55.125 57.066406 L 56.585938 58.527344 C 56.601562 58.546875 56.605469 58.570312 56.589844 58.589844 C 56.582031 58.613281 56.566406 58.625 56.542969 58.628906 L 54.476562 58.628906 C 54.34375 58.628906 54.230469 58.675781 54.140625 58.769531 C 54.046875 58.859375 54 58.972656 54 59.105469 L 54 60.894531 C 54 61.027344 54.046875 61.140625 54.140625 61.230469 C 54.230469 61.324219 54.34375 61.371094 54.476562 61.371094 L 55.128906 61.371094 C 55.273438 61.371094 55.34375 61.300781 55.34375 61.15625 Z M 55.34375 61.15625 " fill-opacity="1" fill-rule="nonzero"/><path fill="#cb6ce6" d="M 60.261719 54.429688 L 60.894531 54.429688 C 60.925781 54.429688 60.941406 54.445312 60.941406 54.476562 L 60.941406 56.726562 C 60.949219 56.828125 60.996094 56.894531 61.089844 56.929688 C 61.292969 56.972656 61.46875 57.171875 61.648438 57.015625 L 63.238281 55.429688 C 63.269531 55.40625 63.277344 55.410156 63.304688 55.429688 L 64.574219 56.695312 C 64.597656 56.71875 64.59375 56.742188 64.570312 56.761719 L 64.234375 57.097656 C 64.136719 57.199219 64.140625 57.300781 64.238281 57.398438 C 64.335938 57.5 64.4375 57.5 64.539062 57.402344 L 64.875 57.066406 C 64.96875 56.972656 65.011719 56.859375 65.011719 56.730469 C 65.011719 56.597656 64.96875 56.484375 64.875 56.390625 L 63.609375 55.128906 C 63.515625 55.035156 63.402344 54.988281 63.273438 54.988281 C 63.140625 54.984375 63.027344 55.03125 62.933594 55.125 L 61.449219 56.609375 C 61.425781 56.597656 61.398438 56.589844 61.371094 56.578125 L 61.371094 54.476562 C 61.371094 54.34375 61.324219 54.230469 61.230469 54.140625 C 61.140625 54.046875 61.027344 54 60.894531 54 L 60.261719 54 C 60.121094 54.003906 60.050781 54.074219 60.050781 54.214844 C 60.050781 54.355469 60.121094 54.425781 60.261719 54.429688 Z M 60.261719 54.429688 " fill-opacity="1" fill-rule="nonzero"/><path fill="#cb6ce6" d="M 65.523438 58.628906 L 63.421875 58.628906 C 63.410156 58.601562 63.402344 58.574219 63.390625 58.550781 L 63.933594 58.007812 C 64.035156 57.90625 64.035156 57.804688 63.933594 57.703125 C 63.832031 57.601562 63.730469 57.601562 63.628906 57.703125 L 62.984375 58.351562 C 62.917969 58.421875 62.902344 58.503906 62.941406 58.597656 C 63.035156 58.734375 63.039062 59.054688 63.273438 59.058594 L 65.523438 59.058594 C 65.554688 59.058594 65.570312 59.074219 65.570312 59.105469 L 65.570312 60.894531 C 65.570312 60.925781 65.554688 60.941406 65.523438 60.941406 L 63.273438 60.941406 C 63.210938 60.945312 63.160156 60.96875 63.117188 61.011719 C 63.035156 61.128906 63.007812 61.292969 62.941406 61.402344 C 62.902344 61.496094 62.917969 61.578125 62.984375 61.648438 L 64.570312 63.238281 C 64.597656 63.257812 64.597656 63.28125 64.570312 63.304688 L 63.304688 64.574219 C 63.28125 64.59375 63.265625 64.589844 63.238281 64.570312 L 61.648438 62.984375 C 61.578125 62.917969 61.5 62.90625 61.410156 62.941406 C 61.265625 63.03125 60.953125 63.039062 60.941406 63.273438 L 60.941406 65.523438 C 60.941406 65.554688 60.925781 65.570312 60.894531 65.570312 L 59.105469 65.570312 C 59.074219 65.570312 59.058594 65.554688 59.058594 65.523438 L 59.058594 63.273438 C 59.054688 63.210938 59.03125 63.160156 58.988281 63.117188 C 58.761719 62.972656 58.425781 62.894531 58.222656 63.109375 L 56.761719 64.570312 C 56.75 64.585938 56.726562 64.582031 56.726562 64.585938 C 56.714844 64.585938 56.703125 64.582031 56.695312 64.570312 L 55.425781 63.304688 C 55.40625 63.28125 55.410156 63.261719 55.429688 63.238281 L 56.890625 61.777344 C 57.035156 61.621094 57.070312 61.445312 56.988281 61.246094 C 56.90625 61.050781 56.757812 60.949219 56.542969 60.941406 L 55.984375 60.941406 C 55.84375 60.945312 55.773438 61.015625 55.773438 61.15625 C 55.773438 61.296875 55.84375 61.371094 55.988281 61.371094 L 56.542969 61.371094 C 56.609375 61.382812 56.625 61.417969 56.585938 61.472656 L 55.125 62.933594 C 55.03125 63.027344 54.988281 63.140625 54.988281 63.269531 C 54.988281 63.402344 55.03125 63.515625 55.125 63.609375 L 56.390625 64.871094 C 56.484375 64.964844 56.597656 65.011719 56.726562 65.011719 C 56.859375 65.011719 56.972656 64.96875 57.066406 64.875 L 58.527344 63.414062 C 58.554688 63.386719 58.597656 63.414062 58.628906 63.421875 L 58.628906 65.523438 C 58.628906 65.65625 58.675781 65.769531 58.769531 65.859375 C 58.859375 65.953125 58.972656 66 59.105469 66 L 60.894531 66 C 61.027344 66 61.140625 65.953125 61.230469 65.859375 C 61.324219 65.769531 61.371094 65.65625 61.371094 65.523438 L 61.371094 63.421875 C 61.398438 63.410156 61.425781 63.402344 61.449219 63.390625 L 62.933594 64.875 C 63.027344 64.96875 63.140625 65.011719 63.269531 65.011719 C 63.402344 65.011719 63.515625 64.96875 63.609375 64.875 L 64.871094 63.609375 C 64.964844 63.515625 65.011719 63.402344 65.011719 63.273438 C 65.011719 63.140625 64.96875 63.027344 64.875 62.933594 L 63.390625 61.449219 C 63.402344 61.425781 63.410156 61.398438 63.421875 61.371094 L 65.523438 61.371094 C 65.65625 61.371094 65.769531 61.324219 65.859375 61.230469 C 65.953125 61.140625 66 61.027344 66 60.894531 L 66 59.105469 C 66 58.972656 65.953125 58.859375 65.859375 58.769531 C 65.769531 58.675781 65.65625 58.628906 65.523438 58.628906 Z M 65.523438 58.628906 " fill-opacity="1" fill-rule="nonzero"/><path fill="#cb6ce6" d="M 59.1875 59.257812 C 59.1875 59.449219 59.117188 59.605469 58.980469 59.734375 C 58.875 59.832031 58.871094 59.933594 58.96875 60.039062 C 59.324219 60.335938 59.640625 59.535156 59.617188 59.25 C 59.609375 59.109375 59.539062 59.039062 59.398438 59.042969 C 59.257812 59.046875 59.1875 59.117188 59.1875 59.257812 Z M 59.1875 59.257812 " fill-opacity="1" fill-rule="nonzero"/><path fill="#cb6ce6" d="M 58.210938 58.230469 C 58.046875 58.285156 57.90625 58.375 57.78125 58.496094 C 57.660156 58.617188 57.574219 58.761719 57.519531 58.925781 C 57.464844 59.089844 57.449219 59.257812 57.476562 59.425781 C 57.503906 59.597656 57.566406 59.753906 57.664062 59.894531 C 57.5625 60.03125 57.5 60.1875 57.472656 60.359375 C 57.445312 60.527344 57.457031 60.695312 57.511719 60.859375 C 57.5625 61.023438 57.648438 61.167969 57.769531 61.289062 C 57.894531 61.410156 58.035156 61.5 58.199219 61.554688 C 58.199219 61.570312 58.199219 61.585938 58.199219 61.605469 C 58.199219 61.816406 58.253906 62.007812 58.367188 62.183594 C 58.480469 62.363281 58.628906 62.496094 58.820312 62.585938 C 59.011719 62.671875 59.210938 62.703125 59.417969 62.675781 C 59.625 62.648438 59.808594 62.566406 59.972656 62.429688 C 60.023438 62.386719 60.046875 62.332031 60.046875 62.265625 L 60.046875 61.738281 L 60.691406 61.738281 L 60.773438 61.824219 C 60.734375 61.898438 60.714844 61.980469 60.714844 62.0625 C 60.710938 62.230469 60.769531 62.371094 60.894531 62.484375 C 61.015625 62.601562 61.160156 62.648438 61.328125 62.632812 C 61.496094 62.617188 61.628906 62.542969 61.726562 62.410156 C 61.828125 62.273438 61.859375 62.125 61.824219 61.960938 C 61.792969 61.796875 61.703125 61.671875 61.554688 61.589844 C 61.410156 61.507812 61.257812 61.492188 61.097656 61.542969 L 60.9375 61.375 C 60.894531 61.332031 60.84375 61.3125 60.785156 61.3125 L 60.046875 61.3125 L 60.046875 60.972656 L 60.707031 60.972656 L 60.988281 61.253906 C 61.03125 61.296875 61.078125 61.316406 61.140625 61.316406 L 61.484375 61.316406 C 61.519531 61.394531 61.566406 61.460938 61.632812 61.515625 C 61.695312 61.574219 61.769531 61.613281 61.851562 61.632812 C 61.933594 61.65625 62.015625 61.65625 62.101562 61.640625 C 62.183594 61.625 62.261719 61.589844 62.328125 61.539062 C 62.394531 61.484375 62.449219 61.421875 62.484375 61.34375 C 62.523438 61.269531 62.542969 61.1875 62.542969 61.101562 C 62.542969 61.015625 62.523438 60.9375 62.484375 60.859375 C 62.449219 60.78125 62.394531 60.71875 62.328125 60.667969 C 62.261719 60.613281 62.183594 60.582031 62.101562 60.5625 C 62.019531 60.546875 61.933594 60.546875 61.851562 60.570312 C 61.769531 60.59375 61.695312 60.628906 61.632812 60.6875 C 61.566406 60.742188 61.519531 60.808594 61.484375 60.886719 L 61.226562 60.886719 L 60.949219 60.605469 C 60.90625 60.566406 60.855469 60.542969 60.796875 60.542969 L 60.046875 60.542969 L 60.046875 60.214844 L 60.722656 60.214844 C 60.753906 60.292969 60.804688 60.359375 60.867188 60.414062 C 60.929688 60.46875 61.003906 60.507812 61.085938 60.53125 C 61.167969 60.550781 61.253906 60.554688 61.335938 60.539062 C 61.417969 60.519531 61.492188 60.484375 61.5625 60.433594 C 61.628906 60.382812 61.679688 60.316406 61.71875 60.242188 C 61.757812 60.164062 61.773438 60.085938 61.773438 60 C 61.773438 59.914062 61.757812 59.835938 61.71875 59.757812 C 61.679688 59.683594 61.628906 59.617188 61.5625 59.566406 C 61.492188 59.515625 61.417969 59.480469 61.335938 59.460938 C 61.253906 59.445312 61.167969 59.449219 61.085938 59.46875 C 61.003906 59.492188 60.929688 59.53125 60.867188 59.585938 C 60.804688 59.640625 60.753906 59.707031 60.722656 59.785156 L 60.046875 59.785156 L 60.046875 59.480469 L 60.796875 59.480469 C 60.855469 59.480469 60.90625 59.460938 60.949219 59.417969 L 61.226562 59.140625 L 61.484375 59.140625 C 61.519531 59.21875 61.566406 59.285156 61.632812 59.339844 C 61.695312 59.394531 61.769531 59.433594 61.851562 59.457031 C 61.933594 59.476562 62.019531 59.480469 62.101562 59.464844 C 62.183594 59.445312 62.261719 59.410156 62.328125 59.359375 C 62.394531 59.308594 62.449219 59.242188 62.484375 59.167969 C 62.523438 59.089844 62.542969 59.011719 62.542969 58.925781 C 62.542969 58.839844 62.523438 58.757812 62.484375 58.683594 C 62.449219 58.605469 62.394531 58.542969 62.328125 58.488281 C 62.261719 58.4375 62.183594 58.402344 62.101562 58.386719 C 62.019531 58.367188 61.933594 58.371094 61.851562 58.394531 C 61.769531 58.414062 61.695312 58.453125 61.632812 58.507812 C 61.566406 58.566406 61.519531 58.632812 61.484375 58.710938 L 61.140625 58.710938 C 61.011719 58.691406 60.808594 58.96875 60.707031 59.054688 L 60.046875 59.054688 L 60.046875 58.75 L 60.785156 58.75 C 60.90625 58.761719 61.019531 58.589844 61.097656 58.519531 C 61.253906 58.566406 61.402344 58.550781 61.542969 58.46875 C 61.683594 58.386719 61.769531 58.265625 61.804688 58.105469 C 61.835938 57.945312 61.804688 57.800781 61.707031 57.667969 C 61.609375 57.535156 61.480469 57.464844 61.320312 57.449219 C 61.15625 57.429688 61.015625 57.480469 60.894531 57.589844 C 60.773438 57.699219 60.714844 57.835938 60.714844 58 C 60.714844 58.082031 60.734375 58.164062 60.773438 58.238281 L 60.691406 58.320312 L 60.046875 58.320312 L 60.046875 57.734375 C 60.046875 57.667969 60.023438 57.613281 59.972656 57.570312 C 59.648438 57.296875 59.292969 57.234375 58.898438 57.382812 C 58.503906 57.53125 58.273438 57.816406 58.210938 58.230469 Z M 61.386719 62.0625 C 61.386719 62.144531 61.34375 62.183594 61.265625 62.183594 C 61.1875 62.183594 61.144531 62.144531 61.144531 62.0625 C 61.144531 61.984375 61.1875 61.945312 61.265625 61.945312 C 61.34375 61.945312 61.386719 61.984375 61.386719 62.0625 Z M 61.992188 60.980469 C 62.070312 60.984375 62.109375 61.023438 62.109375 61.101562 C 62.109375 61.183594 62.070312 61.222656 61.992188 61.222656 C 61.910156 61.222656 61.871094 61.183594 61.871094 61.101562 C 61.871094 61.023438 61.910156 60.984375 61.992188 60.980469 Z M 61.226562 59.878906 C 61.304688 59.882812 61.34375 59.921875 61.34375 60 C 61.34375 60.078125 61.304688 60.117188 61.226562 60.121094 C 61.148438 60.117188 61.109375 60.078125 61.109375 60 C 61.109375 59.921875 61.148438 59.882812 61.226562 59.878906 Z M 61.992188 58.804688 C 62.070312 58.804688 62.109375 58.847656 62.109375 58.925781 C 62.109375 59.003906 62.070312 59.046875 61.992188 59.046875 C 61.910156 59.046875 61.871094 59.003906 61.871094 58.925781 C 61.871094 58.84375 61.910156 58.804688 61.992188 58.804688 Z M 61.265625 57.875 C 61.34375 57.878906 61.382812 57.917969 61.382812 57.996094 C 61.382812 58.074219 61.34375 58.117188 61.265625 58.117188 C 61.1875 58.117188 61.148438 58.074219 61.148438 57.996094 C 61.148438 57.917969 61.1875 57.878906 61.265625 57.875 Z M 59.617188 62.160156 C 59.402344 62.289062 59.183594 62.292969 58.960938 62.171875 C 58.738281 62.046875 58.628906 61.859375 58.625 61.605469 C 58.855469 61.585938 59.054688 61.5 59.230469 61.351562 C 59.40625 61.207031 59.523438 61.023438 59.582031 60.800781 C 59.617188 60.664062 59.566406 60.578125 59.429688 60.539062 C 59.289062 60.503906 59.203125 60.554688 59.167969 60.695312 C 59.140625 60.792969 59.09375 60.878906 59.027344 60.957031 C 58.960938 61.035156 58.878906 61.09375 58.785156 61.132812 C 58.6875 61.171875 58.589844 61.1875 58.488281 61.175781 C 58.386719 61.167969 58.289062 61.140625 58.203125 61.085938 C 58.113281 61.035156 58.042969 60.964844 57.988281 60.878906 C 57.933594 60.792969 57.902344 60.695312 57.890625 60.59375 C 57.878906 60.492188 57.894531 60.394531 57.929688 60.296875 C 57.964844 60.203125 58.023438 60.121094 58.097656 60.050781 C 58.144531 60.007812 58.164062 59.953125 58.164062 59.890625 C 58.164062 59.828125 58.140625 59.777344 58.097656 59.734375 C 57.957031 59.605469 57.886719 59.449219 57.886719 59.257812 C 57.886719 59.097656 57.941406 58.957031 58.046875 58.835938 C 58.152344 58.710938 58.285156 58.640625 58.445312 58.617188 C 58.566406 58.59375 58.625 58.519531 58.625 58.394531 C 58.628906 58.140625 58.738281 57.953125 58.960938 57.828125 C 59.183594 57.707031 59.402344 57.710938 59.617188 57.839844 Z M 59.617188 62.160156 " fill-opacity="1" fill-rule="nonzero"/><g fill="#cb6ce6" fill-opacity="1"><g transform="translate(59.20781, 60.824999)"><g><path d="M 0.78125 0.03125 C 0.675781 0.03125 0.585938 0 0.515625 -0.0625 C 0.453125 -0.125 0.421875 -0.207031 0.421875 -0.3125 C 0.421875 -0.414062 0.453125 -0.5 0.515625 -0.5625 C 0.585938 -0.625 0.675781 -0.65625 0.78125 -0.65625 C 0.894531 -0.65625 0.984375 -0.625 1.046875 -0.5625 C 1.117188 -0.5 1.15625 -0.414062 1.15625 -0.3125 C 1.15625 -0.21875 1.117188 -0.132812 1.046875 -0.0625 C 0.984375 0 0.894531 0.03125 0.78125 0.03125 Z M 0.78125 0.03125 "/></g></g></g></svg>